<?xml version="1.0" encoding="UTF-8" standalone="no"?><!DOCTYPE svg PUBLIC "-//W3C//DTD SVG 1.1//EN" "http://www.w3.org/Graphics/SVG/1.1/DTD/svg11.dtd"><!-- Generated by graphviz version 2.40.1 (20161225.0304)
 --><!-- Title: %0 Pages: 1 --><svg xmlns="http://www.w3.org/2000/svg" xmlns:xlink="http://www.w3.org/1999/xlink" width="663pt" height="620pt" viewBox="0.00 0.00 663.18 620.00">
<g id="graph0" class="graph" transform="scale(1 1) rotate(0) translate(4 616)">
<title>%0</title>
<polygon fill="#ffffff" stroke="transparent" points="-4,4 -4,-616 659.1776,-616 659.1776,4 -4,4"/>
<!-- n0 -->
<g id="node1" class="node">
<title>n0</title>
<ellipse fill="none" stroke="#000000" cx="272.8818" cy="-594" rx="100.7811" ry="18"/>
<text text-anchor="middle" x="272.8818" y="-589.8" font-family="Times,serif" font-size="14.00" fill="#000000">root (CompilationUnit)</text>
</g>
<!-- n1 -->
<g id="node2" class="node">
<title>n1</title>
<ellipse fill="none" stroke="#000000" cx="272.8818" cy="-522" rx="31.339" ry="18"/>
<text text-anchor="middle" x="272.8818" y="-517.8" font-family="Times,serif" font-size="14.00" fill="#000000">types</text>
</g>
<!-- n0&#45;&gt;n1 -->
<g id="edge1" class="edge">
<title>n0-&gt;n1</title>
<path fill="none" stroke="#000000" d="M272.8818,-575.8314C272.8818,-568.131 272.8818,-558.9743 272.8818,-550.4166"/>
<polygon fill="#000000" stroke="#000000" points="276.3819,-550.4132 272.8818,-540.4133 269.3819,-550.4133 276.3819,-550.4132"/>
</g>
<!-- n2 -->
<g id="node3" class="node">
<title>n2</title>
<ellipse fill="none" stroke="#000000" cx="272.8818" cy="-450" rx="146.9199" ry="18"/>
<text text-anchor="middle" x="272.8818" y="-445.8" font-family="Times,serif" font-size="14.00" fill="#000000">type (ClassOrInterfaceDeclaration)</text>
</g>
<!-- n1&#45;&gt;n2 -->
<g id="edge2" class="edge">
<title>n1-&gt;n2</title>
<path fill="none" stroke="#000000" d="M272.8818,-503.8314C272.8818,-496.131 272.8818,-486.9743 272.8818,-478.4166"/>
<polygon fill="#000000" stroke="#000000" points="276.3819,-478.4132 272.8818,-468.4133 269.3819,-478.4133 276.3819,-478.4132"/>
</g>
<!-- n3 -->
<g id="node4" class="node">
<title>n3</title>
<ellipse fill="none" stroke="#000000" cx="81.8818" cy="-378" rx="81.7637" ry="18"/>
<text text-anchor="middle" x="81.8818" y="-373.8" font-family="Times,serif" font-size="14.00" fill="#000000">isInterface='false'</text>
</g>
<!-- n2&#45;&gt;n3 -->
<g id="edge3" class="edge">
<title>n2-&gt;n3</title>
<path fill="none" stroke="#000000" d="M227.1325,-432.7542C198.7745,-422.0643 162.2965,-408.3134 132.9911,-397.2663"/>
<polygon fill="#000000" stroke="#000000" points="133.9417,-393.8843 123.3498,-393.6319 131.4725,-400.4344 133.9417,-393.8843"/>
</g>
<!-- n4 -->
<g id="node5" class="node">
<title>n4</title>
<ellipse fill="none" stroke="#000000" cx="272.8818" cy="-378" rx="91.429" ry="18"/>
<text text-anchor="middle" x="272.8818" y="-373.8" font-family="Times,serif" font-size="14.00" fill="#000000">name (SimpleName)</text>
</g>
<!-- n2&#45;&gt;n4 -->
<g id="edge4" class="edge">
<title>n2-&gt;n4</title>
<path fill="none" stroke="#000000" d="M272.8818,-431.8314C272.8818,-424.131 272.8818,-414.9743 272.8818,-406.4166"/>
<polygon fill="#000000" stroke="#000000" points="276.3819,-406.4132 272.8818,-396.4133 269.3819,-406.4133 276.3819,-406.4132"/>
</g>
<!-- n6 -->
<g id="node7" class="node">
<title>n6</title>
<ellipse fill="none" stroke="#000000" cx="450.8818" cy="-378" rx="46.3662" ry="18"/>
<text text-anchor="middle" x="450.8818" y="-373.8" font-family="Times,serif" font-size="14.00" fill="#000000">members</text>
</g>
<!-- n2&#45;&gt;n6 -->
<g id="edge6" class="edge">
<title>n2-&gt;n6</title>
<path fill="none" stroke="#000000" d="M315.5172,-432.7542C343.8543,-421.292 380.8915,-406.3107 409.0599,-394.9167"/>
<polygon fill="#000000" stroke="#000000" points="410.6669,-398.0423 418.6248,-391.0478 408.042,-391.553 410.6669,-398.0423"/>
</g>
<!-- n5 -->
<g id="node6" class="node">
<title>n5</title>
<ellipse fill="none" stroke="#000000" cx="261.8818" cy="-306" rx="65.056" ry="18"/>
<text text-anchor="middle" x="261.8818" y="-301.8" font-family="Times,serif" font-size="14.00" fill="#000000">identifier='X'</text>
</g>
<!-- n4&#45;&gt;n5 -->
<g id="edge5" class="edge">
<title>n4-&gt;n5</title>
<path fill="none" stroke="#000000" d="M270.106,-359.8314C268.9296,-352.131 267.5306,-342.9743 266.2232,-334.4166"/>
<polygon fill="#000000" stroke="#000000" points="269.6651,-333.7699 264.6949,-324.4133 262.7454,-334.8272 269.6651,-333.7699"/>
</g>
<!-- n7 -->
<g id="node8" class="node">
<title>n7</title>
<ellipse fill="none" stroke="#000000" cx="461.8818" cy="-306" rx="116.3262" ry="18"/>
<text text-anchor="middle" x="461.8818" y="-301.8" font-family="Times,serif" font-size="14.00" fill="#000000">member (FieldDeclaration)</text>
</g>
<!-- n6&#45;&gt;n7 -->
<g id="edge7" class="edge">
<title>n6-&gt;n7</title>
<path fill="none" stroke="#000000" d="M453.6575,-359.8314C454.834,-352.131 456.2329,-342.9743 457.5404,-334.4166"/>
<polygon fill="#000000" stroke="#000000" points="461.0182,-334.8272 459.0686,-324.4133 454.0985,-333.7699 461.0182,-334.8272"/>
</g>
<!-- n8 -->
<g id="node9" class="node">
<title>n8</title>
<ellipse fill="none" stroke="#000000" cx="461.8818" cy="-234" rx="45.7829" ry="18"/>
<text text-anchor="middle" x="461.8818" y="-229.8" font-family="Times,serif" font-size="14.00" fill="#000000">variables</text>
</g>
<!-- n7&#45;&gt;n8 -->
<g id="edge8" class="edge">
<title>n7-&gt;n8</title>
<path fill="none" stroke="#000000" d="M461.8818,-287.8314C461.8818,-280.131 461.8818,-270.9743 461.8818,-262.4166"/>
<polygon fill="#000000" stroke="#000000" points="465.3819,-262.4132 461.8818,-252.4133 458.3819,-262.4133 465.3819,-262.4132"/>
</g>
<!-- n9 -->
<g id="node10" class="node">
<title>n9</title>
<ellipse fill="none" stroke="#000000" cx="461.8818" cy="-162" rx="124.9306" ry="18"/>
<text text-anchor="middle" x="461.8818" y="-157.8" font-family="Times,serif" font-size="14.00" fill="#000000">variable (VariableDeclarator)</text>
</g>
<!-- n8&#45;&gt;n9 -->
<g id="edge9" class="edge">
<title>n8-&gt;n9</title>
<path fill="none" stroke="#000000" d="M461.8818,-215.8314C461.8818,-208.131 461.8818,-198.9743 461.8818,-190.4166"/>
<polygon fill="#000000" stroke="#000000" points="465.3819,-190.4132 461.8818,-180.4133 458.3819,-190.4133 465.3819,-190.4132"/>
</g>
<!-- n10 -->
<g id="node11" class="node">
<title>n10</title>
<ellipse fill="none" stroke="#000000" cx="360.8818" cy="-90" rx="91.429" ry="18"/>
<text text-anchor="middle" x="360.8818" y="-85.8" font-family="Times,serif" font-size="14.00" fill="#000000">name (SimpleName)</text>
</g>
<!-- n9&#45;&gt;n10 -->
<g id="edge10" class="edge">
<title>n9-&gt;n10</title>
<path fill="none" stroke="#000000" d="M436.9155,-144.2022C423.9508,-134.9601 407.9392,-123.5459 393.9582,-113.5792"/>
<polygon fill="#000000" stroke="#000000" points="395.7354,-110.5478 385.5609,-107.593 391.672,-116.2478 395.7354,-110.5478"/>
</g>
<!-- n12 -->
<g id="node13" class="node">
<title>n12</title>
<ellipse fill="none" stroke="#000000" cx="562.8818" cy="-90" rx="92.0921" ry="18"/>
<text text-anchor="middle" x="562.8818" y="-85.8" font-family="Times,serif" font-size="14.00" fill="#000000">type (PrimitiveType)</text>
</g>
<!-- n9&#45;&gt;n12 -->
<g id="edge12" class="edge">
<title>n9-&gt;n12</title>
<path fill="none" stroke="#000000" d="M486.8481,-144.2022C499.8128,-134.9601 515.8244,-123.5459 529.8054,-113.5792"/>
<polygon fill="#000000" stroke="#000000" points="532.0916,-116.2478 538.2027,-107.593 528.0282,-110.5478 532.0916,-116.2478"/>
</g>
<!-- n11 -->
<g id="node12" class="node">
<title>n11</title>
<ellipse fill="none" stroke="#000000" cx="360.8818" cy="-18" rx="63.2698" ry="18"/>
<text text-anchor="middle" x="360.8818" y="-13.8" font-family="Times,serif" font-size="14.00" fill="#000000">identifier='x'</text>
</g>
<!-- n10&#45;&gt;n11 -->
<g id="edge11" class="edge">
<title>n10-&gt;n11</title>
<path fill="none" stroke="#000000" d="M360.8818,-71.8314C360.8818,-64.131 360.8818,-54.9743 360.8818,-46.4166"/>
<polygon fill="#000000" stroke="#000000" points="364.3819,-46.4132 360.8818,-36.4133 357.3819,-46.4133 364.3819,-46.4132"/>
</g>
<!-- n13 -->
<g id="node14" class="node">
<title>n13</title>
<ellipse fill="none" stroke="#000000" cx="562.8818" cy="-18" rx="55.7494" ry="18"/>
<text text-anchor="middle" x="562.8818" y="-13.8" font-family="Times,serif" font-size="14.00" fill="#000000">type='INT'</text>
</g>
<!-- n12&#45;&gt;n13 -->
<g id="edge13" class="edge">
<title>n12-&gt;n13</title>
<path fill="none" stroke="#000000" d="M562.8818,-71.8314C562.8818,-64.131 562.8818,-54.9743 562.8818,-46.4166"/>
<polygon fill="#000000" stroke="#000000" points="566.3819,-46.4132 562.8818,-36.4133 559.3819,-46.4133 566.3819,-46.4132"/>
</g>
</g>
</svg>